<svg xmlns="http://www.w3.org/2000/svg" width="17.2341" height="23.0703" viewBox="0 0 17.2341 23.0703"><g id="PARSEC"><path d="M17.23,15.5643a20.2028,20.2028,0,0,0-.2363-2.2319,13.3792,13.3792,0,0,1,.0388-5.289c.0388-.1524.05-.366-.1-.4134a.2671.2671,0,0,0-.19.03,1.7831,1.7831,0,0,0-.5447.4665,14.5544,14.5544,0,0,0-2.5513,3.62,4.8283,4.8283,0,0,0-.1081-3.0938c-.5083-1.8166-1.5508-3.4194-2.126-5.2094A6.0623,6.0623,0,0,1,11.208,0,6.1947,6.1947,0,0,1,10.0706.47a10.5128,10.5128,0,0,0-1.0278.5647A10.8313,10.8313,0,0,0,4.6553,6.37q-.05.1326-.0962.2666a10.7535,10.7535,0,0,0-.3811,5.657A4.8034,4.8034,0,0,1,2.15,7.4252a5.0791,5.0791,0,0,1-.6511,1.03A12.2416,12.2416,0,0,0,.9231,9.6156a11.5024,11.5024,0,0,0-.759,2.48,9.534,9.534,0,0,0,.3894,4.978,10.136,10.136,0,0,0,3.187,4.45c.2319.1846.9026.7876,1.1917.6968-.1394-.3569-.5118-.6162-.6988-.9563a4.78,4.78,0,0,1-.0578-4.3533,23.0323,23.0323,0,0,1,2.5573-3.5324q.08-.107.1575-.2151A7.484,7.484,0,0,0,8.3841,8.2426c-.1126-.9795.5835.3176.9306.5351a1.3916,1.3916,0,0,1,.2561.3374q.13.1791.2517.3633.2439.3688.4546.7583a9.3161,9.3161,0,0,1,.69,1.6221A8.4831,8.4831,0,0,1,11.3411,13.8a6.3934,6.3934,0,0,1-.1038,1.8057,5.7651,5.7651,0,0,1-.719,1.687q-.17.2945-.3266.5962c-.0191.0366-.0374.0837-.0122.1167.0327.0429.1006.018.1465-.0108a5.6011,5.6011,0,0,0,.904-.6614,3.1188,3.1188,0,0,0,.81-1.94,5.0533,5.0533,0,0,1,.9516,1.1814,4.9658,4.9658,0,0,1,.5752,1.4771,4.2092,4.2092,0,0,1-1.0754,3.8391A7.38,7.38,0,0,1,10.4676,23.07a5.8854,5.8854,0,0,0,2.5468-.77,8.1032,8.1032,0,0,0,3.9339-4.5017A6.3263,6.3263,0,0,0,17.23,15.5643Z" fill="#f20089" stroke="#1d1d1b" stroke-miterlimit="10" stroke-width="0.1"/></g></svg>